{"title":"[MARATHI] We are on Houn Jau Dya (2013) DTHRip XviD 1CD (DDR)","uid":8868540,"size":730957824,"categoryP":"video","categoryS":"movies","magnet":"?xt=urn:btih:a27f147474c9cf2d55e21fba34a619d33a9f1a1c&amp;dn=%5BMARATHI%5D+We+are+on+Houn+Jau+Dya+%282013%29+DTHRip+XviD+1CD+%28DDR%29&amp;tr=udp%3A%2F%2Ftracker.openbittorrent.com%3A80&amp;tr=udp%3A%2F%2Fopen.demonii.com%3A1337&amp;tr=udp%3A%2F%2Ftracker.coppersurfer.tk%3A6969&amp;tr=udp%3A%2F%2Fexodus.desync.com%3A6969","seeders":1,"leechers":0,"uploader":"SJonam","files":1,"time":1377991074,"description":" &lt;a href=&quot;http://desibbrg.org/images/93289752112781769880.png&quot; rel=&quot;nofollow&quot; target=&quot;_NEW&quot;&gt;http://desibbrg.org/images/93289752112781769880.png&lt;/a&gt; &lt;a href=&quot;\nhttp://desibbrg.org/images/52801179957914482311.png&quot; rel=&quot;nofollow&quot; target=&quot;_NEW&quot;&gt;\nhttp://desibbrg.org/images/52801179957914482311.png&lt;/a&gt; &lt;a href=&quot;\nhttp://desibbrg.org/images/85548826806398795582.png&quot; rel=&quot;nofollow&quot; target=&quot;_NEW&quot;&gt;\nhttp://desibbrg.org/images/85548826806398795582.png&lt;/a&gt; &lt;a href=&quot;\nhttp://desibbrg.org/images/92212700175072687079.png&quot; rel=&quot;nofollow&quot; target=&quot;_NEW&quot;&gt;\nhttp://desibbrg.org/images/92212700175072687079.png&lt;/a&gt; &lt;a href=&quot;\nhttp://desibbrg.org/images/44696468187047306085.png&quot; rel=&quot;nofollow&quot; target=&quot;_NEW&quot;&gt;\nhttp://desibbrg.org/images/44696468187047306085.png&lt;/a&gt;\n\nMedia Info - \nVideo\nID : 0\nFormat : MPEG-4 Visual\nFormat profile : Advanced Simple@L5\nFormat settings, BVOP : 3\nFormat settings, QPel : No\nFormat settings, GMC : No warppoints\nFormat settings, Matrix : Default (H.263)\nCodec ID : XVID\nCodec ID/Hint : XviD\nDuration : 2h 3mn\nBit rate : 711 Kbps\nWidth : 608 pixels\nHeight : 320 pixels\nDisplay aspect ratio : 1.900\nFrame rate : 25.000 fps\nColor space : YUV\nChroma subsampling : 4:2:0\nBit depth : 8 bits\nScan type : Progressive\nCompression mode : Lossy\nBits/(Pixel*Frame) : 0.146\nStream size : 630 MiB (90%)\nWriting library : XviD 1.2.1 (UTC 2008-12-04)\n\nAudio\nID : 1\nFormat : MPEG Audio\nFormat version : Version 1\nFormat profile : Layer 3\nMode : Joint stereo\nCodec ID : 55\nCodec ID/Hint : MP3\nDuration : 2h 3mn\nBit rate mode : Variable\nBit rate : 66.0 Kbps\nNominal bit rate : 80.0 Kbps\nChannel(s) : 2 channels\nSampling rate : 32.0 KHz\nCompression mode : Lossy\nStream size : 58.4 MiB (8%)\nAlignment : Aligned on interleaves\nInterleave, duration : 36 ms (0.90 video frame)\nInterleave, preload duration : 563 ms\nWriting library : LAME3.99r\nEncoding settings : -m j -V 4 -q 2 -lowpass 13.5 --abr 80\n\n\nRipper : IndianHacker @ DDR\n\nSeeding 24x7... Extreme Seeding...\n\n\nEnjoy!\n","torrent":{"xt":"urn:btih:a27f147474c9cf2d55e21fba34a619d33a9f1a1c","amp;dn":"%5BMARATHI%5D+We+are+on+Houn+Jau+Dya+%282013%29+DTHRip+XviD+1CD+%28DDR%29","amp;tr":["udp%3A%2F%2Ftracker.openbittorrent.com%3A80","udp%3A%2F%2Fopen.demonii.com%3A1337","udp%3A%2F%2Ftracker.coppersurfer.tk%3A6969","udp%3A%2F%2Fexodus.desync.com%3A6969"],"infoHash":"a27f147474c9cf2d55e21fba34a619d33a9f1a1c","infoHashBuffer":{"type":"Buffer","data":[162,127,20,116,116,201,207,45,85,226,31,186,52,166,25,211,58,159,26,28]},"announce":[],"urlList":[]}}